<?xml version="1.0" encoding="UTF-8" standalone="no"?>
<!DOCTYPE svg PUBLIC "-//W3C//DTD SVG 1.1//EN" "http://www.w3.org/Graphics/SVG/1.1/DTD/svg11.dtd">
<svg width="100%" height="100%" viewBox="0 0 1024 1024" version="1.1" xmlns="http://www.w3.org/2000/svg" xmlns:xlink="http://www.w3.org/1999/xlink" xml:space="preserve" xmlns:serif="http://www.serif.com/" style="fill-rule:evenodd;clip-rule:evenodd;stroke-linejoin:round;stroke-miterlimit:2;">
    <g transform="matrix(1,0,0,1,-1074,-218)">
        <g id="SpinTrace-AppIcon" serif:id="SpinTrace AppIcon" transform="matrix(1,0,0,1,0,218)">
            <rect x="1074" y="0" width="1024" height="1024" style="fill:none;"/>
            <rect x="1074" y="0" width="1024" height="1024" style="fill:rgb(255,0,255);"/>
            <g transform="matrix(3.46976,3.46976,-0.707107,0.707107,-347.94,-2147.02)">
                <path d="M670.763,603.781L670.763,688.76C677.08,681.106 683.064,665.177 687.996,640.975C690.794,627.244 693.05,611.851 694.762,595.442L712.354,593.498C711.998,598.862 711.606,604.17 711.179,609.413L712.55,622.729C711.731,631.822 710.81,640.687 709.793,649.285L706.791,651.668C705.545,661.37 704.17,670.657 702.675,679.47L703.14,694.214C701.788,701.619 700.354,708.654 698.845,715.289L695.841,713.004C694.045,720.341 692.152,727.089 690.175,733.203L689.689,747.931C687.937,752.924 686.13,757.441 684.277,761.463L681.564,754.733C679.394,758.988 677.169,762.536 674.903,765.353L673.514,778.624C671.533,780.715 669.53,782.271 667.515,783.286L665.358,772.772C663.026,773.528 660.686,773.528 658.354,772.772L656.197,783.286C654.182,782.271 652.179,780.715 650.198,778.624L648.809,765.353C646.543,762.536 644.318,758.988 642.148,754.733L639.434,761.463C637.581,757.441 635.775,752.924 634.022,747.931L633.537,733.203C631.56,727.089 629.667,720.341 627.871,713.004L624.866,715.289C623.357,708.654 621.924,701.619 620.571,694.214L621.037,679.47C619.542,670.657 618.167,661.37 616.921,651.668L613.919,649.285C612.902,640.687 611.981,631.822 611.162,622.729L612.533,609.413C611.666,598.764 610.943,587.846 610.369,576.73L607.664,569.913C607.238,560.192 606.921,550.365 606.714,540.474L608.857,529.889C608.703,518.447 608.703,506.967 608.857,495.525L606.714,484.94C606.921,475.049 607.238,465.222 607.664,455.502L610.369,448.684C610.943,437.568 611.666,426.65 612.533,416.001L611.162,402.686C611.981,393.593 612.902,384.727 613.919,376.129L616.921,373.746C618.167,364.044 619.542,354.757 621.037,345.944L620.571,331.201C621.924,323.796 623.357,316.76 624.866,310.125L627.871,312.41C629.667,305.073 631.56,298.325 633.537,292.211L634.022,277.483C635.775,272.491 637.581,267.973 639.434,263.952L642.148,270.681C644.318,266.426 646.543,262.878 648.809,260.061L650.198,246.791C652.179,244.7 654.182,243.143 656.197,242.128L658.354,252.643C660.686,251.887 663.026,251.887 665.358,252.643L667.515,242.128C669.53,243.143 671.533,244.7 673.514,246.791L674.903,260.061C677.169,262.878 679.394,266.426 681.564,270.681L684.277,263.952C686.13,267.973 687.937,272.491 689.689,277.483L690.175,292.211C692.152,298.325 694.045,305.073 695.841,312.41L698.845,310.125C700.354,316.76 701.788,323.796 703.14,331.201L702.675,345.944C704.17,354.757 705.545,364.044 706.791,373.746L709.793,376.129C710.81,384.727 711.731,393.593 712.55,402.686L711.179,416.001C711.568,420.779 711.928,425.612 712.259,430.492L694.611,428.541C692.918,412.668 690.713,397.77 687.996,384.439C683.064,360.237 677.08,344.309 670.763,336.655L670.763,421.633C671.576,423.545 672.368,425.734 673.134,428.2C674.293,431.93 675.392,436.293 676.41,441.289C678.102,449.589 679.437,458.979 680.416,469C683.062,496.078 683.107,527.764 680.551,555C679.561,565.552 678.181,575.436 676.41,584.125C675.486,588.66 674.495,592.674 673.454,596.166C672.589,599.064 671.689,601.602 670.763,603.781ZM653.237,420.968L653.237,336.311C646.814,343.826 640.723,359.869 635.716,384.439C630.784,408.641 627.538,438.005 625.978,469L643.296,469C644.275,458.979 645.61,449.589 647.302,441.289C649.072,432.6 651.087,425.827 653.237,420.968ZM643.16,555L625.908,555C627.439,586.516 630.709,616.405 635.716,640.975C640.723,665.545 646.814,681.588 653.237,689.103L653.237,604.446C651.087,599.588 649.072,592.814 647.302,584.125C645.531,575.436 644.15,565.552 643.16,555ZM664.907,482.174C662.32,475.955 659.106,478.119 656.956,488.665C654.252,501.934 654.252,523.48 656.956,536.749C659.118,547.356 662.358,549.484 664.952,543.132C665.603,541.538 666.213,539.41 666.755,536.749C669.459,523.48 669.459,501.934 666.755,488.665C666.201,485.943 665.575,483.779 664.907,482.174Z" style="fill:white;fill-opacity:0.7;"/>
            </g>
            <g transform="matrix(3.68605,3.68605,-1.04651,1.04651,-159.849,-2306.48)">
                <path d="M633.114,559.734C633.022,560.07 632.93,560.403 632.836,560.733C625.275,587.366 612.997,587.366 605.435,560.733C597.874,534.1 597.874,490.855 605.435,464.222C612.997,437.589 625.275,437.589 632.836,464.222L632.842,464.244L692.792,469C699.53,469 705,488.268 705,512C705,535.732 699.53,555 692.792,555L633.114,559.734ZM622.008,491.847C619.573,487.645 616.547,489.107 614.524,496.233C611.978,505.199 611.978,519.757 614.524,528.722C616.558,535.889 619.608,537.327 622.05,533.035C622.663,531.958 623.237,530.521 623.748,528.722C626.293,519.757 626.293,505.199 623.748,496.233C623.225,494.394 622.636,492.932 622.008,491.847Z" style="fill:white;"/>
            </g>
        </g>
    </g>
</svg>
